HIERARCHY
ROOT Pelvis
{
	OFFSET 0.000000 0.941512 0.000000
	CHANNELS 6 Xposition Yposition Zposition Zrotation Yrotation Xrotation 
	JOINT Pelvis_L_Hip
	{
		OFFSET 0.000000 0.000000 0.000000
		CHANNELS 3 Zrotation Yrotation Xrotation
		JOINT L_Hip
		{
			OFFSET 0.062321 -0.080322 -0.016990
			CHANNELS 3 Zrotation Yrotation Xrotation
			JOINT L_Knee
			{
				OFFSET 0.093051 -0.381305 -0.029784
				CHANNELS 3 Zrotation Yrotation Xrotation
				JOINT L_Ankle
				{
					OFFSET -0.010371 -0.431000 -0.033614
					CHANNELS 3 Zrotation Yrotation Xrotation
					End Site #name: L_Foot
					{
						OFFSET 0.069299 -0.038670 0.119418
					}
				}
			}
		}
	}
	JOINT Pelvis_R_Hip
	{
		OFFSET 0.000000 0.000000 0.000000
		CHANNELS 3 Zrotation Yrotation Xrotation
		JOINT R_Hip
		{
			OFFSET -0.055334 -0.094904 -0.002373
			CHANNELS 3 Zrotation Yrotation Xrotation
			JOINT R_Knee
			{
				OFFSET -0.064207 -0.384370 -0.019592
				CHANNELS 3 Zrotation Yrotation Xrotation
				JOINT R_Ankle
				{
					OFFSET 0.025418 -0.419734 -0.065953
					CHANNELS 3 Zrotation Yrotation Xrotation
					End Site #name: R_Foot
					{
						OFFSET -0.057233 -0.039888 0.132134
					}
				}
			}
		}
	}
	JOINT Pelvis_Spine1
	{
		OFFSET 0.000000 0.000000 0.000000
		CHANNELS 3 Zrotation Yrotation Xrotation
		JOINT Spine1
		{
			OFFSET -0.005562 0.124093 -0.043360
			CHANNELS 3 Zrotation Yrotation Xrotation
			JOINT Spine2
			{
				OFFSET 0.012244 0.139499 0.029894
				CHANNELS 3 Zrotation Yrotation Xrotation
				JOINT Spine3
				{
					OFFSET -0.002556 0.056561 0.009225
					CHANNELS 3 Zrotation Yrotation Xrotation
					JOINT Spine3_Neck
					{
						OFFSET 0.000000 0.000000 0.000000
						CHANNELS 3 Zrotation Yrotation Xrotation
						JOINT Neck
						{
							OFFSET -0.005205 0.217920 -0.024551
							CHANNELS 3 Zrotation Yrotation Xrotation
							End Site #name: Head
							{
								OFFSET 0.002365 0.091850 0.046637
							}
						}
					}
					JOINT Spine3_L_Collar
					{
						OFFSET 0.000000 0.000000 0.000000
						CHANNELS 3 Zrotation Yrotation Xrotation
						JOINT L_Collar
						{
							OFFSET 0.072225 0.116603 -0.009480
							CHANNELS 3 Zrotation Yrotation Xrotation
							JOINT L_Shoulder
							{
								OFFSET 0.115937 -0.058643 -0.021018
								CHANNELS 3 Zrotation Yrotation Xrotation
								JOINT L_Elbow
								{
									OFFSET 0.021994 -0.254722 -0.024492
									CHANNELS 3 Zrotation Yrotation Xrotation
									End Site #name: L_Wrist
									{
										OFFSET 0.048810 -0.240214 0.103329
									}
								}
							}
						}
					}
					JOINT Spine3_R_Collar
					{
						OFFSET 0.000000 0.000000 0.000000
						CHANNELS 3 Zrotation Yrotation Xrotation
						JOINT R_Collar
						{
							OFFSET -0.073372 0.120704 -0.024611
							CHANNELS 3 Zrotation Yrotation Xrotation
							JOINT R_Shoulder
							{
								OFFSET -0.108089 -0.054969 -0.020504
								CHANNELS 3 Zrotation Yrotation Xrotation
								JOINT R_Elbow
								{
									OFFSET -0.033684 -0.260739 0.009889
									CHANNELS 3 Zrotation Yrotation Xrotation
									End Site #name: R_Wrist
									{
										OFFSET -0.067980 -0.232763 0.118463
									}
								}
							}
						}
					}
				}
			}
		}
	}
}
MOTION
Frames: 16
Frame Time: 0.041667
0.000000 0.960340 0.000000 -6.249415 5.697483 5.377912 0.000000 0.000000 0.000000 9.618717 -2.207183 -8.435499 4.678588 -0.436649 1.363894 29.184778 54.861281 58.538044 0.000000 0.000000 0.000000 -0.994508 2.411958 -14.926455 1.093955 0.021638 4.429890 -6.589288 -28.706732 20.944178 0.000000 0.000000 0.000000 4.817662 -2.316028 8.087767 -2.087747 -0.157096 -7.439440 2.376806 -0.714939 5.483448 0.000000 0.000000 0.000000 3.449584 -1.997911 2.713828 0.000000 0.000000 0.000000 28.328529 -13.869200 -5.716633 -21.028165 -0.706565 -10.876822 -14.439369 -15.146003 -22.048099 0.000000 0.000000 0.000000 -35.114210 2.834179 4.608723 27.162922 -4.632582 14.436778 5.651860 4.720840 -4.903864 
-0.034097 0.959213 0.009614 -6.490217 4.352642 5.691591 0.000000 0.000000 0.000000 10.730499 -2.140198 -7.925244 6.328921 -0.621141 1.753826 26.014190 53.566047 56.205042 0.000000 0.000000 0.000000 0.603490 2.569450 -15.053380 2.466836 -0.230084 5.053263 -6.105297 -26.912266 17.029064 0.000000 0.000000 0.000000 7.347032 -3.128531 8.357691 -2.340345 -0.088413 -6.919645 1.901810 -2.313491 5.619491 0.000000 0.000000 0.000000 2.991057 -1.821861 4.383045 0.000000 0.000000 0.000000 27.773056 -14.409970 -6.705975 -22.097653 -1.096958 -12.314101 -11.746676 -13.454054 -22.681271 0.000000 0.000000 0.000000 -34.958623 1.458656 6.566207 27.157041 -4.648168 14.294347 5.887540 5.037355 -5.381343 
-0.067156 0.958641 0.020704 -6.347348 2.406653 5.700399 0.000000 0.000000 0.000000 12.516888 -2.127870 -7.828597 4.489557 -0.593827 3.865358 23.209405 52.033876 45.673728 0.000000 0.000000 0.000000 1.787325 2.870677 -16.148060 4.140835 -0.506852 7.821207 -5.857350 -25.273076 13.215426 0.000000 0.000000 0.000000 8.852305 -3.633995 8.756663 -2.400498 -0.042228 -6.455989 1.415537 -3.841244 5.759175 0.000000 0.000000 0.000000 2.851025 -1.804924 6.706132 0.000000 0.000000 0.000000 28.146213 -14.865039 -7.633118 -23.575968 -1.188043 -12.638955 -8.496427 -11.048041 -22.516980 0.000000 0.000000 0.000000 -35.063605 0.400028 8.359301 27.677671 -4.472962 13.478787 5.677739 5.003587 -5.625591 
-0.099770 0.958527 0.033621 -5.597549 -0.643032 5.074748 0.000000 0.000000 0.000000 14.130533 -2.152113 -8.661736 0.472971 -0.311914 10.064169 18.589865 47.999529 31.146842 0.000000 0.000000 0.000000 3.377707 2.905111 -15.528065 4.128302 -0.423784 9.149178 -5.419954 -23.150336 9.949526 0.000000 0.000000 0.000000 9.062032 -3.740372 9.476482 -2.728046 0.033171 -6.010700 1.006578 -4.921766 6.361566 0.000000 0.000000 0.000000 2.543762 -1.586391 8.343944 0.000000 0.000000 0.000000 28.010862 -14.380725 -7.753999 -22.970091 -0.829874 -11.518879 -6.376681 -9.341768 -21.972266 0.000000 0.000000 0.000000 -34.611183 -0.341678 9.727614 28.020437 -4.306855 12.676127 5.578849 5.180528 -6.254133 
-0.126658 0.960868 0.047790 -4.263209 -4.540423 4.268541 0.000000 0.000000 0.000000 13.092858 -2.217886 -10.283476 -2.528636 0.317514 18.387046 9.284652 34.941521 17.323991 0.000000 0.000000 0.000000 4.047179 2.688835 -14.140081 3.412672 -0.168253 9.642451 -4.385325 -20.027465 8.000055 0.000000 0.000000 0.000000 9.126254 -3.767645 10.280018 -3.809132 0.208534 -5.394530 0.567576 -5.467199 7.044364 0.000000 0.000000 0.000000 2.065058 -1.184754 8.770663 0.000000 0.000000 0.000000 27.132288 -12.763271 -6.856205 -21.270274 -0.347689 -9.858411 -5.033009 -7.918635 -20.484236 0.000000 0.000000 0.000000 -33.738694 -0.446256 10.331837 27.940072 -4.025105 11.713785 5.643916 5.399584 -6.732429 
-0.147827 0.967101 0.062632 -2.914671 -8.293601 4.059660 0.000000 0.000000 0.000000 9.961050 -2.782530 -14.391780 -3.945482 1.191590 27.489453 3.799349 20.282559 8.686347 0.000000 0.000000 0.000000 4.414164 2.290575 -12.167654 2.197523 0.077549 7.897230 -3.100226 -16.790158 7.239844 0.000000 0.000000 0.000000 9.506945 -3.863192 10.916691 -4.920529 0.308939 -5.881739 0.240818 -5.531473 7.598993 0.000000 0.000000 0.000000 1.215076 -0.548171 9.351783 0.000000 0.000000 0.000000 26.278996 -10.791160 -5.591467 -20.352268 0.319399 -7.396673 -4.076015 -6.197924 -16.835387 0.000000 0.000000 0.000000 -33.468487 0.159110 10.335676 27.806887 -3.880749 11.147507 5.863549 5.464748 -6.560174 
-0.166734 0.972479 0.079379 -1.808471 -11.398517 4.330337 0.000000 0.000000 0.000000 5.460933 -3.953706 -19.939246 -2.065749 1.116179 34.525185 1.803017 12.237502 5.249955 0.000000 0.000000 0.000000 4.941639 1.887810 -10.285311 0.571756 0.281188 5.485165 -1.893907 -13.913786 6.928645 0.000000 0.000000 0.000000 10.090818 -3.922295 10.783745 -5.288996 0.324193 -6.361473 -0.417442 -5.368444 8.102346 0.000000 0.000000 0.000000 -0.108675 0.372382 9.434225 0.000000 0.000000 0.000000 25.755665 -9.120567 -4.518596 -19.651088 0.968526 -4.869863 -3.553576 -4.498391 -11.793759 0.000000 0.000000 0.000000 -33.119747 1.102696 9.830687 27.366331 -3.698503 10.627260 5.968975 5.501706 -6.494261 
-0.185423 0.974388 0.098343 -0.982661 -14.544493 4.594603 0.000000 0.000000 0.000000 0.944571 -5.355470 -25.049769 1.291159 0.154317 37.342934 1.034290 8.144481 3.578979 0.000000 0.000000 0.000000 5.347506 1.447208 -8.343147 -0.643391 0.344504 3.289135 -0.761696 -11.125363 6.621635 0.000000 0.000000 0.000000 10.485408 -3.896269 10.503262 -5.553020 0.352436 -6.554980 -0.670875 -5.095404 8.391449 0.000000 0.000000 0.000000 -1.642222 1.403013 9.034821 0.000000 0.000000 0.000000 25.561278 -7.544349 -3.547493 -19.331981 1.592099 -2.417634 -3.484503 -3.014493 -6.164316 0.000000 0.000000 0.000000 -32.913443 2.328417 9.102947 26.668255 -3.282834 9.566488 6.090093 5.692634 -6.806562 
-0.205230 0.973794 0.119605 -0.852515 -17.554736 4.274526 0.000000 0.000000 0.000000 -2.488548 -6.397799 -28.219290 4.784362 -1.107027 35.095478 -0.740705 2.555297 3.230907 0.000000 0.000000 0.000000 6.170241 0.817835 -5.588526 -1.450806 0.325076 1.473630 0.269730 -8.169987 6.071931 0.000000 0.000000 0.000000 10.948753 -4.008399 11.132946 -5.692189 0.365687 -6.774277 -0.587905 -4.918377 8.590773 0.000000 0.000000 0.000000 -3.243941 2.412198 8.129864 0.000000 0.000000 0.000000 25.232477 -6.124448 -2.706747 -19.080109 2.195314 -0.038177 -3.310227 -1.609862 -0.745923 0.000000 0.000000 0.000000 -32.569222 3.195490 8.633858 25.673426 -2.533283 7.657514 5.726468 5.907143 -7.955093 
-0.226686 0.971379 0.142967 -1.257520 -20.195044 4.166611 0.000000 0.000000 0.000000 -4.556382 -7.008884 -30.173423 7.315471 -1.912312 29.120891 -2.916072 -2.964273 3.954369 0.000000 0.000000 0.000000 7.326725 0.202241 -3.004868 -2.022293 0.304939 0.305033 0.941438 -5.428691 5.157250 0.000000 0.000000 0.000000 11.563114 -4.125135 11.429963 -5.957135 0.399336 -6.902638 -0.439925 -5.004850 8.680422 0.000000 0.000000 0.000000 -4.542241 3.251411 7.659074 0.000000 0.000000 0.000000 25.102378 -5.240116 -2.319789 -19.660944 2.909105 2.356767 -1.898290 0.177725 4.573084 0.000000 0.000000 0.000000 -32.560193 3.878627 8.472027 25.432551 -1.631999 5.101004 5.068705 6.161704 -9.711404 
-0.248755 0.968014 0.168924 -1.815376 -22.097605 4.294920 0.000000 0.000000 0.000000 -6.078042 -7.416356 -31.423796 8.999784 -2.215302 21.911437 -4.200642 -4.753973 5.403722 0.000000 0.000000 0.000000 8.607215 -0.411047 -0.545500 -2.618522 0.317665 -0.438998 1.128927 -3.445126 4.064846 0.000000 0.000000 0.000000 12.227264 -4.220364 11.264287 -6.404961 0.449970 -7.044652 -0.390536 -5.426075 8.751867 0.000000 0.000000 0.000000 -5.466872 3.883758 7.504212 0.000000 0.000000 0.000000 24.897857 -4.494588 -2.026118 -20.493456 3.636500 4.527929 0.264085 1.757049 8.509795 0.000000 0.000000 0.000000 -32.599881 4.038089 8.798640 25.560528 -0.666585 2.295084 4.799666 7.017446 -12.389867 
-0.271041 0.963468 0.197628 -2.368136 -23.430145 4.348036 0.000000 0.000000 0.000000 -7.168127 -7.603743 -31.802235 9.304893 -2.001487 15.554472 -5.074969 -5.207250 6.913650 0.000000 0.000000 0.000000 9.599724 -1.095761 2.222855 -2.926040 0.296056 -1.092074 1.006301 -1.784207 2.770155 0.000000 0.000000 0.000000 12.695558 -4.244194 10.862497 -6.660589 0.491042 -6.992163 -0.595055 -5.944446 8.757685 0.000000 0.000000 0.000000 -6.071517 4.309053 7.399921 0.000000 0.000000 0.000000 24.597047 -3.927335 -1.827856 -20.603251 4.081434 6.016563 1.421604 2.540082 10.712666 0.000000 0.000000 0.000000 -32.507912 3.847223 9.339482 25.569167 0.094303 0.091918 4.894697 8.959693 -17.071158 
-0.294252 0.958049 0.229118 -3.043106 -24.425266 4.221116 0.000000 0.000000 0.000000 -7.772630 -7.607012 -31.611891 8.962633 -1.728915 11.882396 -6.000167 -6.255657 8.060030 0.000000 0.000000 0.000000 10.425054 -1.832111 5.273928 -2.788042 0.255863 -1.313795 0.786567 -0.795962 1.795489 0.000000 0.000000 0.000000 13.039939 -4.238691 10.448870 -6.946687 0.561259 -6.570163 -0.775090 -6.276379 8.629907 0.000000 0.000000 0.000000 -6.541447 4.590016 7.052246 0.000000 0.000000 0.000000 24.313619 -3.710121 -1.837422 -20.084010 4.182589 6.688027 1.664246 2.654980 10.945813 0.000000 0.000000 0.000000 -32.549960 3.855372 9.637780 25.704160 0.709426 -1.678177 5.229666 11.401733 -22.170085 
-0.318201 0.952555 0.262932 -4.031146 -25.416096 4.269575 0.000000 0.000000 0.000000 -7.846025 -7.433306 -31.064896 9.063998 -1.698619 11.218951 -6.416939 -6.608897 8.696782 0.000000 0.000000 0.000000 11.521203 -2.492628 7.871509 -2.527658 0.284373 -0.592994 0.412183 -0.938049 1.227825 0.000000 0.000000 0.000000 13.413753 -4.243487 10.052548 -7.216232 0.628744 -6.188523 -0.907338 -6.254490 8.356505 0.000000 0.000000 0.000000 -7.123596 4.871760 6.403194 0.000000 0.000000 0.000000 24.085895 -3.791580 -2.025521 -19.650045 4.023815 6.371996 1.728142 2.521146 10.055039 0.000000 0.000000 0.000000 -32.922910 4.562564 9.311464 26.145382 1.177081 -2.999753 5.412164 13.332666 -26.042542 
-0.343053 0.947171 0.300176 -4.963641 -26.448383 4.795749 0.000000 0.000000 0.000000 -7.779332 -7.198441 -30.370362 9.333137 -1.821266 12.874647 -6.613009 -7.132127 8.790054 0.000000 0.000000 0.000000 12.204374 -2.929598 9.603141 -2.230326 0.426708 1.399498 0.449415 -0.327370 0.942655 0.000000 0.000000 0.000000 13.453431 -4.075685 8.986523 -7.451252 0.685978 -5.926600 -1.057290 -6.006405 7.932140 0.000000 0.000000 0.000000 -7.521995 5.083598 6.072783 0.000000 0.000000 0.000000 23.944611 -3.685993 -2.061291 -19.170531 3.647718 5.290034 1.285677 2.059540 8.261848 0.000000 0.000000 0.000000 -33.218672 5.714983 8.499226 26.557028 1.468986 -3.769452 5.810164 14.570742 -27.859568 
-0.369188 0.941775 0.342964 -5.553576 -27.184710 5.038241 0.000000 0.000000 0.000000 -8.103994 -6.847990 -28.560679 10.062291 -2.028195 14.656006 -9.153144 -10.005734 11.527122 0.000000 0.000000 0.000000 12.083862 -3.296105 11.494091 -1.797245 0.623542 4.027752 1.396874 0.784989 1.902624 0.000000 0.000000 0.000000 13.054300 -3.799939 7.854868 -7.646989 0.732029 -5.736458 -1.214855 -5.805849 7.492132 0.000000 0.000000 0.000000 -7.664386 5.198153 6.139389 0.000000 0.000000 0.000000 23.654860 -4.054173 -2.434558 -18.384488 3.203181 4.050621 0.186127 1.214792 5.819741 0.000000 0.000000 0.000000 -33.290435 7.103628 7.294455 26.854974 1.441133 -3.598576 5.993657 15.042927 -28.460692 
